<svg xmlns="http://www.w3.org/2000/svg"  viewBox="0 0 64 64" width="512px" height="512px" baseProfile="basic"><radialGradient id="B0Y0Pu0ls76PWMZo51mTza" cx="32" cy="1224" r="32" gradientTransform="matrix(1 0 0 -1 0 1256)" gradientUnits="userSpaceOnUse"><stop offset="0" stop-color="#f4e9c3"/><stop offset=".219" stop-color="#f8eecd"/><stop offset=".644" stop-color="#fdf4dc"/><stop offset="1" stop-color="#fff6e1"/></radialGradient><path fill="url(#B0Y0Pu0ls76PWMZo51mTza)" d="M59.5,57c1.933,0,3.5,1.567,3.5,3.5S61.433,64,59.5,64S56,62.433,56,60.5S57.567,57,59.5,57z M8,4c0-2.209-1.791-4-4-4S0,1.791,0,4c0,2.209,1.791,4,4,4S8,6.209,8,4z M12,48c1.657,0,3,1.343,3,3v0c0,1.657-1.343,3-3,3H6	c-2.919,0-5.275,2.535-4.974,5.513C1.288,62.107,3.628,64,6.236,64H12.5h11.857H49.5c1.995,0,3.601-1.67,3.495-3.688	c-0.068-1.293-0.882-2.365-1.995-2.914C50.484,57.143,54,53,54,53c2.339,0,4.209-2.007,3.981-4.393	C57.783,46.527,55.917,45,53.828,45L52.5,45c-1.466,0-2.637-1.261-2.487-2.758c0.13-1.301,1.322-2.242,2.63-2.242L60,40	c2.339,0,4.209-2.007,3.981-4.393C63.783,33.527,61.917,32,59.828,32L58.5,32c-1.995,0-3.601-1.67-3.495-3.688	C55.104,26.419,56.803,25,58.698,25l0.802,0c2.631,0,4.735-2.258,4.479-4.942C63.756,17.718,61.657,16,59.307,16L49,16	c-2.339,0-4.209-2.007-3.981-4.393C45.217,9.527,47.083,8,49.172,8L51,8c2.339,0,4.209-2.007,3.981-4.393	C54.783,1.527,52.917,0,50.828,0L15,0c-2.339,0-4.209,2.007-3.981,4.393C11.217,6.473,13.083,8,15.172,8L17,8	c1.71,0,3.086,1.431,2.996,3.161C19.911,12.784,18.455,14,16.83,14L5.5,14c-1.995,0-3.601,1.67-3.495,3.688	C2.104,19.581,3.803,21,5.698,21L7,21c1.71,0,3.086,1.431,2.996,3.161C9.911,25.784,8.455,27,6.83,27L4.5,27	C2.015,27,0,29.015,0,31.5l0,0C0,33.985,2.015,36,4.5,36h0c1.596,0,2.855,1.516,2.409,3.179C6.614,40.279,5.551,41,4.412,41L3.5,41	c-2.168,0-3.892,1.998-3.422,4.243C0.42,46.878,1.944,48,3.614,48L12,48z"/><path fill="#7f7f7f" d="M22.964,33.184c0.266,0.524,0.797,0.834,1.386,0.819c0.588-0.019,1.097-0.366,1.329-0.906	l6.707-15.578l7.013,15.615c0.239,0.535,0.753,0.874,1.338,0.886c0.011,0,0.021,0,0.031,0c0.573,0,1.086-0.316,1.342-0.832	L53.786,9.703c0.114-0.229,0.037-0.507-0.179-0.645c-0.215-0.136-0.501-0.091-0.66,0.111L40.721,24.569l-7.076-13.496	c-0.261-0.497-0.769-0.803-1.328-0.803c-0.006,0-0.012,0-0.019,0c-0.566,0.007-1.075,0.327-1.326,0.835l-6.696,13.538L11.862,9.168	c-0.16-0.2-0.446-0.246-0.661-0.107c-0.215,0.139-0.29,0.418-0.174,0.646L22.964,33.184z"/><linearGradient id="B0Y0Pu0ls76PWMZo51mTzb" x1="21.271" x2="21.271" y1="53.987" y2="44.773" gradientUnits="userSpaceOnUse"><stop offset="0" stop-color="#ff5840"/><stop offset=".007" stop-color="#ff5840"/><stop offset=".989" stop-color="#fa528c"/><stop offset="1" stop-color="#fa528c"/></linearGradient><path fill="url(#B0Y0Pu0ls76PWMZo51mTzb)" d="M22.383,46.905c-4.163,1.058-9.526,2.698-12.305,3.962c-1.59,0.723-3.381,1.787-4.623,2.565	c-0.125,0.078-0.175,0.237-0.116,0.372s0.207,0.209,0.35,0.173c3.619-0.923,11.836-2.969,16.087-3.624	c5.554-0.856,15.454-1.279,15.454-1.279l-2.034-4.301C35.195,44.773,26.546,45.847,22.383,46.905z"/><linearGradient id="B0Y0Pu0ls76PWMZo51mTzc" x1="51.25" x2="51.25" y1="50.581" y2="44.029" gradientUnits="userSpaceOnUse"><stop offset="0" stop-color="#ff5840"/><stop offset=".007" stop-color="#ff5840"/><stop offset=".989" stop-color="#fa528c"/><stop offset="1" stop-color="#fa528c"/></linearGradient><path fill="url(#B0Y0Pu0ls76PWMZo51mTzc)" d="M56.987,44.029H46.373l-1.862,5.248c0,0,4.648,0.3,6.469,0.554	c1.215,0.169,2.949,0.517,3.969,0.729c0.485,0.101,0.966-0.167,1.137-0.632c0.289-0.787,0.725-1.962,1.011-2.658	c0.207-0.503,0.519-1.207,0.801-1.832C58.198,44.775,57.713,44.029,56.987,44.029z"/><path fill="#7f7f7f" d="M58.471,10.669L42.572,54.979c-0.21,0.582-0.723,0.962-1.341,0.991	c-0.609,0.029-1.165-0.302-1.427-0.863l-7.06-15.137l-7.007,15.16c-0.251,0.54-0.766,0.87-1.356,0.87c-0.02,0-0.041,0-0.061-0.001	c-0.616-0.023-1.132-0.397-1.347-0.974L6.425,10.674c-0.093-0.248,0.025-0.526,0.268-0.632c0.238-0.105,0.526-0.005,0.646,0.232	l17.325,34.208l6.649-15.222c0.241-0.552,0.765-0.896,1.367-0.899c0.002,0,0.004,0,0.007,0c0.599,0,1.122,0.339,1.367,0.886	l6.726,15.023l16.773-33.992c0.117-0.238,0.4-0.342,0.643-0.239C58.44,10.144,58.561,10.419,58.471,10.669z"/></svg>